<svg xmlns="http://www.w3.org/2000/svg" viewBox="37 28 178 178" width="178" height="178"><path d="M 169.6951197246113 148.91640058967317 Q 161.36054572293713 169.83280117934632 135.93897845157082 187.2145137482371 Q 110.5174111802045 204.5962263171279 91.17935530968688 179.82041556621806 Q 71.84129943916926 155.04460481530822 64.46432547758766 124.44743657649829 Q 57.08735151600605 93.85026833768835 82.21229550999843 65.66039976358114 Q 107.3372395039908 37.47053118947393 141.60951711155732 52.714329857792535 Q 175.88179471912386 67.95812852611114 176.95574422270465 97.97906426305556 Q 178.02969372628542 128 169.6951197246113 148.91640058967317 " fill="#8AC926" stroke="#111111" stroke-width="10" stroke-linejoin="round"/><circle cx="95" cy="110" r="14" fill="#111111"/><circle cx="90.8" cy="105.8" r="4.2" fill="#fff"/><circle cx="160" cy="110" r="6" fill="#111111"/><circle cx="158.2" cy="108.2" r="1.7999999999999998" fill="#fff"/>
            <path d="M 62 110 Q 62 50 128 50 Q 194 50 194 110" fill="none" stroke="#111111" stroke-width="10" stroke-linecap="round"/>
            <rect x="50" y="102" width="24" height="36" rx="6" fill="#1982C4" stroke="#111111" stroke-width="10"/>
            <rect x="182" y="102" width="24" height="36" rx="6" fill="#1982C4" stroke="#111111" stroke-width="10"/><path d="M 100 145 Q 128 175 156 145" fill="none" stroke="#111111" stroke-width="10" stroke-linecap="round"/></svg>